<?xml version="1.0" standalone="no"?>
<!DOCTYPE svg PUBLIC "-//W3C//DTD SVG 20010904//EN"
 "http://www.w3.org/TR/2001/REC-SVG-20010904/DTD/svg10.dtd">
<svg version="1.0" xmlns="http://www.w3.org/2000/svg"
 width="581.000000pt" height="581.000000pt" viewBox="0 0 581.000000 581.000000"
 preserveAspectRatio="xMidYMid meet">
<metadata>
Created by potrace 1.11, written by Peter Selinger 2001-2013
</metadata>
<g transform="translate(0.000000,581.000000) scale(0.100000,-0.100000)"
fill="#000000" stroke="none">
<path d="M3173 4944 c-24 -14 -54 -44 -68 -68 l-25 -43 0 -1263 0 -1263 25
-43 c15 -26 43 -54 69 -69 l43 -25 263 0 263 0 43 25 c26 15 54 43 69 69 l25
43 0 931 0 932 565 0 565 0 0 -1260 0 -1260 -897 0 -896 0 -43 -25 c-26 -15
-54 -43 -69 -69 l-25 -43 0 -263 0 -263 25 -43 c15 -26 43 -54 69 -69 l43 -25
1252 0 c831 0 1259 3 1271 10 11 6 31 30 45 54 l25 43 0 1938 0 1938 -25 43
c-15 26 -43 54 -69 69 l-43 25 -1229 0 -1229 0 -42 -26z"/>
<path d="M93 4924 c-24 -14 -54 -44 -68 -68 l-25 -43 0 -1913 0 -1913 25 -43
c15 -26 43 -54 69 -69 l43 -25 263 0 263 0 43 25 c26 15 54 43 69 69 l25 43 0
841 0 842 742 0 741 0 43 25 c26 15 54 43 69 69 l25 43 0 263 0 263 -25 43
c-15 26 -43 54 -69 69 l-43 25 -741 0 -742 0 0 672 0 671 -25 43 c-15 26 -43
54 -69 69 l-43 25 -264 0 -264 0 -42 -26z"/>
</g>
</svg>
