<svg xmlns="http://www.w3.org/2000/svg" viewBox="0 0 178.5 151.5">
    <defs>
        <style>.cls-1,.cls-2{fill:#fff;}.cls-2{stroke:#fff;stroke-miterlimit:10;}</style>
    </defs>
    <title>hdlogoxxhdpi</title>
    <g id="Layer_2" data-name="Layer 2">
        <g id="Layer_1-2" data-name="Layer 1">
            <rect class="cls-1" x="0.5" y="0.5" width="29.32" height="150.5" rx="2.5" ry="2.5"/>
            <path class="cls-1" d="M27.32,1a2,2,0,0,1,2,2V148.5a2,2,0,0,1-2,2H3a2,2,0,0,1-2-2V3A2,2,0,0,1,3,1H27.32m0-1H3A3,3,0,0,0,0,3V148.5a3,3,0,0,0,3,3H27.32a3,3,0,0,0,3-3V3a3,3,0,0,0-3-3Z"/>
            <rect class="cls-1" x="13.53" y="61" width="89.97" height="29.5" rx="2.5" ry="2.5"/>
            <path class="cls-1" d="M101,61.5a2,2,0,0,1,2,2V88a2,2,0,0,1-2,2H16a2,2,0,0,1-2-2V63.5a2,2,0,0,1,2-2h85m0-1H16a3,3,0,0,0-3,3V88a3,3,0,0,0,3,3h85a3,3,0,0,0,3-3V63.5a3,3,0,0,0-3-3Z"/>
            <path class="cls-2" d="M102.5,1l-.24,29.81h.24a45.2,45.2,0,1,1,0,90.4h-.24V151h.24c41.7,0,75.5-33.58,75.5-75S144.2,1,102.5,1"/>
            <path class="cls-1" d="M77.36,151a2.5,2.5,0,0,1-2.5-2.5v-35a2.5,2.5,0,0,1,2.5-2.5h23.29a2.5,2.5,0,0,1,2.5,2.5v37.08a.42.42,0,0,1-.42.42Z"/>
            <path class="cls-1" d="M100.64,111.5a2,2,0,0,1,2,2v37H77.36a2,2,0,0,1-2-2v-35a2,2,0,0,1,2-2h23.29m0-1H77.36a3,3,0,0,0-3,3v35a3,3,0,0,0,3,3h25.37a.92.92,0,0,0,.92-.92V113.5a3,3,0,0,0-3-3Z"/>
            <path class="cls-1" d="M77.36,41a2.5,2.5,0,0,1-2.5-2.5V3.5A2.5,2.5,0,0,1,77.36,1h25a.83.83,0,0,1,.83.83V38.5a2.5,2.5,0,0,1-2.5,2.5Z"/>
            <path class="cls-1" d="M102.32,1.5a.33.33,0,0,1,.33.33V38.5a2,2,0,0,1-2,2H77.36a2,2,0,0,1-2-2V3.5a2,2,0,0,1,2-2h25m0-1h-25a3,3,0,0,0-3,3v35a3,3,0,0,0,3,3h23.29a3,3,0,0,0,3-3V1.83A1.33,1.33,0,0,0,102.32.5Z"/>
        </g>
    </g>
</svg>